<svg width="25" height="64" version="1.1" xmlns="http://www.w3.org/2000/svg" desc="Created with imagetracer.js version 1.2.6" ><path fill="rgb(0,0,0)" stroke="rgb(0,0,0)" stroke-width="1" opacity="0" d="M 0 0 L 25 0 L 25 31 L 0 31 L 0 0 Z " /><path fill="rgb(11,93,189)" stroke="rgb(11,93,189)" stroke-width="1" opacity="1" d="M 1.5 31 L 10 31.5 L 1.5 32 L 1.5 31 Z " /><path fill="rgb(11,93,189)" stroke="rgb(11,93,189)" stroke-width="1" opacity="1" d="M 11.5 31 L 22 31.5 L 11.5 32 L 11.5 31 Z " /><path fill="rgb(11,93,189)" stroke="rgb(11,93,189)" stroke-width="1" opacity="1" d="M 15.5 34 L 18 34.5 Q 18.8 36.8 16.5 36 L 18 38.5 L 16.5 41 L 14 40.5 L 16 37.5 Q 12.3 35.7 15.5 34 Z " /><path fill="rgb(11,93,189)" stroke="rgb(11,93,189)" stroke-width="1" opacity="1" d="M 6.5 36 L 7.5 38 L 9.5 38 Q 12.5 37.2 11 41 L 8 41 Q 9.1 38.3 6.5 39 Q 3.5 37.5 6.5 36 Z " /><path fill="rgb(11,93,189)" stroke="rgb(11,93,189)" stroke-width="1" opacity="1" d="M 21.5 40 L 22 41.5 L 22 43.5 L 22 45 L 18 45 L 18 43 Q 20.7 44.1 20 41.5 L 21.5 40 Z " /><path fill="rgb(11,93,189)" stroke="rgb(11,93,189)" stroke-width="1" opacity="1" d="M 3.5 43 Q 8.3 41.7 7 45 Q 3.2 45.8 3.5 43 Z " /><path fill="rgb(11,93,189)" stroke="rgb(11,93,189)" stroke-width="1" opacity="1" d="M 10.5 45 Q 12 48.5 13.5 46 L 15 46.5 L 15 53.5 L 13 52.5 L 12.5 51 L 12 53 L 10 52.5 L 11 47.5 L 10.5 45 Z " /><path fill="rgb(11,93,189)" stroke="rgb(11,93,189)" stroke-width="1" opacity="1" d="M 6.5 46 L 9 46.5 L 5.5 48 L 6.5 46 Z " /><path fill="rgb(11,93,189)" stroke="rgb(11,93,189)" stroke-width="1" opacity="1" d="M 17.5 46 L 18.5 48 Q 15.7 48.7 17.5 46 Z " /><path fill="rgb(11,93,189)" stroke="rgb(11,93,189)" stroke-width="1" opacity="1" d="M 17.5 54 L 21 54.5 L 17.5 55 L 17.5 54 Z " /><path fill="rgb(11,93,189)" stroke="rgb(11,93,189)" stroke-width="1" opacity="1" d="M 8.5 56 L 14 56.5 L 13.5 58 L 15 58.5 L 13 59 Q 14.3 62 10.5 61 L 7 61.5 Q 6 57 8.5 56 Z " /><path fill="rgb(9,61,54)" stroke="rgb(9,61,54)" stroke-width="1" opacity="1" d="M 8.5 36 L 11 37.5 L 9.5 38 L 8.5 36 Z " /><path fill="rgb(9,61,54)" stroke="rgb(9,61,54)" stroke-width="1" opacity="1" d="M 1.5 41 L 3.5 42 L 5 41.5 L 1 43 L 1.5 41 Z " /><path fill="rgb(9,61,54)" stroke="rgb(9,61,54)" stroke-width="1" opacity="1" d="M 8.5 41 L 11 42 L 10.5 44 L 6 42.5 L 8.5 41 Z " /><path fill="rgb(9,61,54)" stroke="rgb(9,61,54)" stroke-width="1" opacity="1" d="M 16.5 41 L 19 42.5 L 15.5 44 L 15 42.5 L 16.5 41 Z " /><path fill="rgb(9,61,54)" stroke="rgb(9,61,54)" stroke-width="1" opacity="1" d="M 21.5 46 L 22.5 48 Q 19.7 48.7 21.5 46 Z " /><path fill="rgb(9,61,54)" stroke="rgb(9,61,54)" stroke-width="1" opacity="1" d="M 2.5 47 L 5 47.5 L 2.5 48 L 2.5 47 Z " /><path fill="rgb(9,61,54)" stroke="rgb(9,61,54)" stroke-width="1" opacity="1" d="M 19.5 49 L 21 49.5 L 17.5 51 L 17.5 50 L 19.5 49 Z " /><path fill="rgb(9,61,54)" stroke="rgb(9,61,54)" stroke-width="1" opacity="1" d="M 2.5 56 L 3.5 58 Q 0.7 58.7 2.5 56 Z " /><path fill="rgb(9,61,54)" stroke="rgb(9,61,54)" stroke-width="1" opacity="1" d="M 23.5 56 Q 26.1 55.3 25 58 L 22 57.5 L 23.5 56 Z " /><path fill="rgb(7,139,70)" stroke="rgb(7,139,70)" stroke-width="1" opacity="1" d="M 8.5 34 Q 16.3 31.6 14 38 L 11 38 Q 12.1 35.3 9.5 36 L 8.5 34 Z " /><path fill="rgb(7,139,70)" stroke="rgb(7,139,70)" stroke-width="1" opacity="1" d="M 18 36 L 22 36.5 L 18 38 L 18 36 Z " /><path fill="rgb(7,139,70)" stroke="rgb(7,139,70)" stroke-width="1" opacity="1" d="M 4.5 38 L 7 39 L 6.5 41 L 0 41 Q -1.3 38 2.5 39 L 4 39.5 L 4.5 38 Z " /><path fill="rgb(7,139,70)" stroke="rgb(7,139,70)" stroke-width="1" opacity="1" d="M 19.5 39 L 22 39.5 L 18.5 41 L 19.5 39 Z " /><path fill="rgb(7,139,70)" stroke="rgb(7,139,70)" stroke-width="1" opacity="1" d="M 2.5 46 L 5 46.5 L 2.5 47 L 2.5 46 Z " /><path fill="rgb(7,139,70)" stroke="rgb(7,139,70)" stroke-width="1" opacity="1" d="M 8.5 47 L 10 50.5 L 9 50.5 L 8.5 47 Z " /><path fill="rgb(7,139,70)" stroke="rgb(7,139,70)" stroke-width="1" opacity="1" d="M 16.5 47 L 17 48.5 L 16 49.5 L 17.5 52 L 15 51 L 16.5 47 Z " /><path fill="rgb(9,73,135)" stroke="rgb(9,73,135)" stroke-width="1" opacity="1" d="M 3 36 L 6 36.5 L 3.5 38 L 3 36 Z " /><path fill="rgb(9,73,135)" stroke="rgb(9,73,135)" stroke-width="1" opacity="1" d="M 14.5 36 L 16.5 36 Q 18.8 35.3 18 37.5 L 15.5 38 L 14.5 36 Z " /><path fill="rgb(9,73,135)" stroke="rgb(9,73,135)" stroke-width="1" opacity="1" d="M 22.5 40 L 24 42.5 L 21.5 46 L 20 45.5 L 22 45 L 21 42.5 L 22.5 40 Z " /><path fill="rgb(9,73,135)" stroke="rgb(9,73,135)" stroke-width="1" opacity="1" d="M 9.5 41 L 16 41.5 L 15 43.5 L 16.5 43 Q 19.1 42.2 18 45.5 L 20.5 49 L 18 48.5 Q 20.3 47.3 17.5 46 Q 15.3 45.3 16 47.5 L 15 47.5 Q 15.8 45.3 13.5 46 L 12.5 47 L 10 45.5 L 11 51.5 L 10 51.5 L 9 45 L 6.5 46 L 7 44.5 Q 6.3 42.3 8.5 43 L 11 44 Q 12.1 41.3 9.5 42 L 9.5 41 Z " /><path fill="rgb(9,73,135)" stroke="rgb(9,73,135)" stroke-width="1" opacity="1" d="M 1 43 L 4 44.5 L 1 44.5 L 1 43 Z " /><path fill="rgb(9,73,135)" stroke="rgb(9,73,135)" stroke-width="1" opacity="1" d="M 3.5 48 L 7 48.5 L 3.5 49 L 3.5 48 Z " /><path fill="rgb(9,73,135)" stroke="rgb(9,73,135)" stroke-width="1" opacity="1" d="M 12.5 51 L 13 54 L 15.5 53 L 17.5 55 L 24 55.5 Q 22.8 58 19 57 L 19 62 L 10.5 62 L 10.5 61 L 13 61 Q 11.9 58.3 14.5 59 L 14.5 58 L 13 57.5 L 13.5 56 L 3.5 57 L 1 56.5 L 5.5 54 L 7.5 54 L 12 53 L 12.5 51 Z " /><path fill="rgb(7,115,65)" stroke="rgb(7,115,65)" stroke-width="1" opacity="1" d="M 7.5 34 L 10.5 36 L 12 35.5 L 9.5 37 L 7 36 L 7.5 34 Z " /><path fill="rgb(7,115,65)" stroke="rgb(7,115,65)" stroke-width="1" opacity="1" d="M 14.5 37 L 15 38.5 L 11 40 Q 9.8 37 13.5 38 L 14.5 37 Z " /><path fill="rgb(7,115,65)" stroke="rgb(7,115,65)" stroke-width="1" opacity="1" d="M 20.5 37 Q 23.1 36.3 22 39 L 18 40.5 L 20 41.5 L 17 42 L 18 38 L 20.5 37 Z " /><path fill="rgb(7,115,65)" stroke="rgb(7,115,65)" stroke-width="1" opacity="1" d="M 7.5 40 L 8 42 L 5 41.5 L 7.5 40 Z " /><path fill="rgb(7,115,65)" stroke="rgb(7,115,65)" stroke-width="1" opacity="1" d="M 2.5 45 Q 6.9 43.5 6 46.5 L 4.5 46 Q 1.5 46.5 2.5 45 Z " /><path fill="rgb(7,115,65)" stroke="rgb(7,115,65)" stroke-width="1" opacity="1" d="M 18.5 45 Q 20.8 44.3 20 46.5 L 20.5 48 L 18.5 45 Z " /><path fill="rgb(7,115,65)" stroke="rgb(7,115,65)" stroke-width="1" opacity="1" d="M 9.5 47 L 10 48.5 L 9 50.5 L 10 53.5 L 9 53.5 Q 9.8 51.3 7.5 52 L 8 50.5 L 7 48.5 L 9 48.5 L 9.5 47 Z " /><path fill="rgb(7,115,65)" stroke="rgb(7,115,65)" stroke-width="1" opacity="1" d="M 15.5 48 L 18 48.5 Q 18.8 50.8 16.5 50 L 15.5 48 Z " /><path fill="rgb(7,115,65)" stroke="rgb(7,115,65)" stroke-width="1" opacity="1" d="M 15 51 L 18 52.5 L 15 53 L 15 51 Z " /><path fill="rgb(3,13,25)" stroke="rgb(3,13,25)" stroke-width="1" opacity="1" d="M 7.5 56 L 7 57.5 L 6.5 62 L 5 57.5 L 7.5 56 Z " /><path fill="rgb(1,0,0)" stroke="rgb(1,0,0)" stroke-width="1" opacity="1" d="M 0 32 L 24.5 32 L 25 32.5 L 25 40 L 22 39.5 L 22 37.5 Q 22.7 34.5 19 36 L 18.5 34 L 7 34 L 7 36 L 3 36 L 3 37.5 L 0 39 L 0 32 Z " /><path fill="rgb(1,0,0)" stroke="rgb(1,0,0)" stroke-width="1" opacity="1" d="M 0.5 42 L 3 50 L 7 51.5 Q 8.3 55.3 4.5 54 L 0.5 56 L 0.5 42 Z " /><path fill="rgb(1,0,0)" stroke="rgb(1,0,0)" stroke-width="1" opacity="1" d="M 22.5 45 L 25 45.5 L 24.5 56 L 18 54 L 19.5 50 L 21 50 L 21 48 Q 23.7 49.1 23 46.5 L 22.5 45 Z " /><path fill="rgb(1,0,0)" stroke="rgb(1,0,0)" stroke-width="1" opacity="1" d="M 4.5 57 Q 7 58.2 6 62 L 19 62 L 19 57.5 L 20.5 58 L 25 58 L 25 64 L 0.5 64 L 0 63.5 L 0 58 L 4.5 57 Z " /></svg>